<?xml version="1.0" encoding="UTF-8"?>
<svg width="25px" height="24px" viewBox="0 0 25 24" version="1.1" xmlns="http://www.w3.org/2000/svg" xmlns:xlink="http://www.w3.org/1999/xlink">
    <!-- Generator: Sketch 40.1 (33804) - http://www.bohemiancoding.com/sketch -->
    <title>Add Button</title>
    <desc>Created with Sketch.</desc>
    <defs></defs>
    <g id="Prototyping" stroke="none" stroke-width="1" fill="none" fill-rule="evenodd">
        <g id="No-Guides" transform="translate(-1076.000000, -293.000000)">
            <g id="Content" transform="translate(150.000000, 156.000000)">
                <g id="Controller---Add" transform="translate(926.000000, 3.000000)">
                    <g id="Add-Button" transform="translate(0.000000, 134.000000)">
                        <circle id="Oval" fill="#FFFFFF" cx="12" cy="12" r="12"></circle>
                        <path d="M13,0.0612244898 C6.41665306,0.0612244898 1.06122449,5.41665306 1.06122449,12 C1.06122449,18.5833469 6.41665306,23.9387755 13,23.9387755 C19.5833469,23.9387755 24.9387755,18.5833469 24.9387755,12 C24.9387755,5.41665306 19.5833469,0.0612244898 13,0.0612244898 L13,0.0612244898 Z M13,22.1020408 C7.43053061,22.1020408 2.89795918,17.5694694 2.89795918,12 C2.89795918,6.43053061 7.43053061,1.89795918 13,1.89795918 C18.5694694,1.89795918 23.1020408,6.43053061 23.1020408,12 C23.1020408,17.5694694 18.5694694,22.1020408 13,22.1020408 L13,22.1020408 Z" id="Fill-1" fill="#82878C"></path>
                        <path d="M19.4285714,11.0816327 L13.9183673,11.0816327 L13.9183673,5.57142857 C13.9183673,5.0644898 13.5069388,4.65306122 13,4.65306122 C12.4930612,4.65306122 12.0816327,5.0644898 12.0816327,5.57142857 L12.0816327,11.0816327 L6.57142857,11.0816327 C6.0644898,11.0816327 5.65306122,11.4930612 5.65306122,12 C5.65306122,12.5069388 6.0644898,12.9183673 6.57142857,12.9183673 L12.0816327,12.9183673 L12.0816327,18.4285714 C12.0816327,18.9355102 12.4930612,19.3469388 13,19.3469388 C13.5069388,19.3469388 13.9183673,18.9355102 13.9183673,18.4285714 L13.9183673,12.9183673 L19.4285714,12.9183673 C19.9355102,12.9183673 20.3469388,12.5069388 20.3469388,12 C20.3469388,11.4930612 19.9355102,11.0816327 19.4285714,11.0816327 L19.4285714,11.0816327 Z" id="Fill-2" fill="#82878C"></path>
                    </g>
                </g>
            </g>
        </g>
    </g>
</svg>