<?xml version="1.0" encoding="UTF-8"?>
<svg width="24px" height="24px" viewBox="0 0 24 24" version="1.1" xmlns="http://www.w3.org/2000/svg" xmlns:xlink="http://www.w3.org/1999/xlink">
    <g id="Prototyping" stroke="none" stroke-width="1" fill="none" fill-rule="evenodd">
        <g id="No-Guides" transform="translate(-603, -293)">
            <g id="Content" transform="translate(150, 156)">
                <g id="Controller---Resize" transform="translate(453, 3)">
                    <g transform="translate(0, 134)">
                        <circle id="Oval" fill="#FFFFFF" cx="12" cy="12" r="12"></circle>
                        <path d="M12,0.0612244898 C5.41665306,0.0612244898 0.0612244898,5.41665306 0.0612244898,12 C0.0612244898,18.5833469 5.41665306,23.9387755 12,23.9387755 C18.5833469,23.9387755 23.9387755,18.5833469 23.9387755,12 C23.9387755,5.41665306 18.5833469,0.0612244898 12,0.0612244898 L12,0.0612244898 Z M12,22.1020408 C6.43053061,22.1020408 1.89795918,17.5694694 1.89795918,12 C1.89795918,6.43053061 6.43053061,1.89795918 12,1.89795918 C17.5694694,1.89795918 22.1020408,6.43053061 22.1020408,12 C22.1020408,17.5694694 17.5694694,22.1020408 12,22.1020408 L12,22.1020408 Z" id="Fill-1" fill="#82878C"></path>
                        <path d="M12.9183673,11.0816327 L12.9183673,5.57142857 C12.9183673,5.0644898 12.5069388,4.65306122 12,4.65306122 C11.4930612,4.65306122 11.0816327,5.0644898 11.0816327,5.57142857 L11.0816327,11.0816327 L11.0816327,12.9183673 L11.0816327,18.4285714 C11.0816327,18.9355102 11.4930612,19.3469388 12,19.3469388 C12.5069388,19.3469388 12.9183673,18.9355102 12.9183673,18.4285714 L12.9183673,12.9183673 L12.9183673,11.0816327 Z" id="Fill-2" fill="#82878C"></path>
                        <g id="Page-1" transform="translate(5, 3)" fill="#82878C">
                            <path d="M4,13 L0,9 L4,5 L4,13 Z" id="Fill-1"></path>
                            <path d="M10,5 L14,9 L10,13 L10,5 Z" id="Fill-2"></path>
                        </g>
                    </g>
                </g>
            </g>
        </g>
    </g>
</svg>